# xmcd
#
# Track frame offsets: 
#        150
#        17782
#        41030
#        61457
#        80995
#        100012
#        101925
#        119382
#        133282
#        136515
#        153647
#        178140
#
# Disc length: 3011 seconds
#
# Revision: 10
# Processed by: cddbd v1.5.2PL0 Copyright (c) Steve Scherf et al.
# Submitted via: ExactAudioCopy v1.0b3
#
DISCID=ad0bc10c
DTITLE=Nikka Costa - Everybody Got Their Something
DYEAR=2001
DGENRE=Soul
TTITLE0=Like A Feather
TTITLE1=So Have I For You
TTITLE2=Tug Of War
TTITLE3=Everybody Got Their Something
TTITLE4=Nothing
TTITLE5=Nikka What
TTITLE6=Hope It Felt Good
TTITLE7=Some Kind Of Beautiful
TTITLE8=Nikka Who
TTITLE9=Just Because
TTITLE10=Push And Pull
TTITLE11=Corners Of My Mind
EXTD=
EXTT0=
EXTT1=
EXTT2=
EXTT3=
EXTT4=
EXTT5=
EXTT6=
EXTT7=
EXTT8=
EXTT9=
EXTT10=
EXTT11=
PLAYORDER=
